<?xml version="1.0" standalone="no"?>
<!DOCTYPE svg PUBLIC "-//W3C//DTD SVG 20010904//EN"
 "http://www.w3.org/TR/2001/REC-SVG-20010904/DTD/svg10.dtd">
<svg version="1.0" xmlns="http://www.w3.org/2000/svg"
 width="165.000000pt" height="165.000000pt" viewBox="0 0 165.000000 165.000000"
 preserveAspectRatio="xMidYMid meet">
<metadata>
Created by potrace 1.11, written by Peter Selinger 2001-2013
</metadata>
<g transform="translate(0.000000,165.000000) scale(0.100000,-0.100000)"
fill="#000000" stroke="none">
<path d="M744 1616 c-27 -13 -94 -49 -149 -81 -55 -31 -122 -70 -150 -85 -27
-15 -67 -37 -88 -49 -21 -12 -71 -40 -110 -62 -159 -89 -156 -82 -160 -517 -3
-330 -2 -344 18 -386 11 -24 28 -51 37 -60 15 -15 191 -122 228 -139 8 -4 32
-17 52 -29 67 -42 272 -161 313 -181 72 -37 129 -28 253 41 186 103 205 114
300 168 52 30 96 54 98 54 10 0 120 74 132 89 7 9 21 33 31 53 16 34 18 75 20
385 2 369 0 385 -46 438 -28 31 -209 145 -232 145 -6 0 -11 3 -11 8 0 4 -10
12 -23 18 -12 6 -97 54 -190 108 -195 113 -235 123 -323 82z"/>
</g>
</svg>
